<svg height="512pt" viewBox="0 -31 512 512" width="512pt" xmlns="http://www.w3.org/2000/svg"><g fill="#fff"><path d="m114.394531 330.695312c28.660157.019532 52.140625 22.167969 54.289063 50.285157h161.574218c2.148438-28.117188 25.628907-50.265625 54.289063-50.285157zm0 0"/><path d="m114.316406 330.695312h-104.300781c-.011719.550782-.015625 1.105469-.015625 1.660157v48.625h48.027344"/><path d="m440.914062 380.980469h61.085938v-39.972657c0-3.476562-.1875-6.917968-.558594-10.3125h-116.816406"/></g><path d="m386.386719 212.871094 18.851562 31.675781h-336.871093l51.667968-109.394531c5.574219-11.796875 17.453125-19.324219 30.5-19.324219h158.921875c11.890625 0 22.902344 6.261719 28.980469 16.480469l5.683594 9.546875" fill="#b8ecff"/><path d="m365.378906 187.578125c-.648437 0-1.308594-.058594-1.949218-.1875-.640626-.132813-1.269532-.320313-1.871094-.570313-.597656-.25-1.1875-.5625-1.726563-.921874-.550781-.371094-1.0625-.789063-1.523437-1.25-.457032-.460938-.878906-.96875-1.238282-1.519532-.359374-.539062-.671874-1.121094-.921874-1.722656-.25-.605469-.4375-1.238281-.566407-1.867188-.132812-.648437-.199219-1.3125-.199219-1.960937s.066407-1.308594.199219-1.949219c.128907-.640625.316407-1.269531.566407-1.871094.25-.609374.5625-1.1875.921874-1.730468.359376-.546875.78125-1.058594 1.238282-1.519532.460937-.457031.972656-.878906 1.523437-1.238281.539063-.359375 1.128907-.671875 1.726563-.921875.601562-.25 1.230468-.4375 1.871094-.570312 1.289062-.257813 2.621093-.257813 3.910156 0 .640625.132812 1.261718.320312 1.871094.570312.597656.25 1.179687.5625 1.71875.921875.550781.359375 1.0625.78125 1.519531 1.238281.472656.460938.882812.972657 1.25 1.519532.359375.542968.671875 1.121094.921875 1.730468.25.601563.441406 1.230469.570312 1.871094s.199219 1.300782.199219 1.949219-.070313 1.3125-.199219 1.960937c-.132812.628907-.320312 1.261719-.570312 1.867188-.25.601562-.558594 1.183594-.921875 1.722656-.367188.550782-.789063 1.058594-1.25 1.519532-.457031.460937-.96875.878906-1.519531 1.25-.539063.359374-1.121094.671874-1.71875.921874-.609376.25-1.230469.4375-1.871094.570313-.648438.128906-1.308594.1875-1.960938.1875zm0 0"/><path d="m432.78125 249.398438-17.089844-4.851563h-164.917968v-128.71875h-41.925782v128.71875h-140.480468c-34.851563 14.628906-57.699219 48.457031-58.351563 86.148437h491.425781c-4.140625-38.203124-31.046875-70.621093-68.660156-81.296874zm0 0" fill="#64bbdf"/><path d="m236.800781 43.0625c0 18.253906-14.800781 33.054688-33.054687 33.054688-18.257813 0-33.058594-14.800782-33.058594-33.054688 0-18.257812 14.800781-33.058594 33.058594-33.058594 18.253906 0 33.054687 14.800782 33.054687 33.058594zm0 0" fill="#ff6b6b"/><path d="m302.917969 43.0625c0 18.253906-14.800781 33.054688-33.058594 33.054688s-33.054687-14.800782-33.054687-33.054688c0-18.257812 14.796874-33.058594 33.054687-33.058594s33.058594 14.800782 33.058594 33.058594zm0 0" fill="#ff6b6b"/><path d="m168.84375 385.1875c0 30.089844-24.394531 54.484375-54.488281 54.484375s-54.488281-24.394531-54.488281-54.484375c0-30.09375 24.394531-54.488281 54.488281-54.488281s54.488281 24.394531 54.488281 54.488281zm0 0" fill="#df8352"/><path d="m114.355469 399.605469c-7.949219 0-14.417969-6.46875-14.417969-14.421875 0-7.949219 6.46875-14.417969 14.417969-14.417969s14.417969 6.46875 14.417969 14.417969c0 7.953125-6.46875 14.421875-14.417969 14.421875zm0 0" fill="#fff"/><path d="m114.355469 409.605469c-13.464844 0-24.417969-10.957031-24.417969-24.417969 0-13.464844 10.953125-24.421875 24.417969-24.421875 13.460937 0 24.417969 10.957031 24.417969 24.421875 0 13.460938-10.953126 24.417969-24.417969 24.417969zm0-28.839844c-2.4375 0-4.417969 1.984375-4.417969 4.421875 0 2.433594 1.980469 4.417969 4.417969 4.417969 2.433593 0 4.417969-1.984375 4.417969-4.417969 0-2.4375-1.984376-4.421875-4.417969-4.421875zm0 0"/><path d="m439.074219 385.1875c0 30.089844-24.394531 54.484375-54.488281 54.484375s-54.488282-24.394531-54.488282-54.484375c0-30.09375 24.394532-54.488281 54.488282-54.488281s54.488281 24.394531 54.488281 54.488281zm0 0" fill="#df8352"/><path d="m511.386719 329.617188c-4.644531-42.808594-34.425781-78.070313-75.875-89.839844l-17.089844-4.851563c-.890625-.25-1.808594-.378906-2.730469-.378906h-4.769531l-15.941406-26.789063c-2.824219-4.746093-8.964844-6.304687-13.707031-3.480468-4.746094 2.824218-6.304688 8.960937-3.480469 13.707031l9.855469 16.5625h-126.875v-108.71875h48.683593c8.320313 0 16.132813 4.441406 20.390625 11.59375l5.679688 9.550781c2.828125 4.746094 8.964844 6.304688 13.710937 3.476563 4.746094-2.824219 6.300781-8.960938 3.476563-13.707031l-5.683594-9.550782c-7.839844-13.175781-22.238281-21.363281-37.574219-21.363281h-62.65625v-26.417969c6.671875 4.246094 14.582031 6.710938 23.058594 6.710938 23.742187 0 43.058594-19.316406 43.058594-43.0625 0-23.742188-19.316407-43.058594-43.058594-43.058594-13.269531 0-25.152344 6.03125-33.058594 15.5-7.902343-9.46875-19.789062-15.5-33.058593-15.5-23.738282 0-43.054688 19.316406-43.054688 43.058594 0 23.746094 19.316406 43.0625 43.054688 43.0625 8.476562 0 16.390624-2.460938 23.058593-6.710938v26.417969h-76.265625c-16.832031 0-32.351562 9.832031-39.539062 25.054687l-50.082032 106.023438c-36.425781 16.910156-60.195312 53.230469-60.898437 93.605469v.007812c-.01171875.609375-.015625 1.222657-.015625 1.835938v48.625c0 5.523437 4.476562 10 10 10h40.125c2.9375 32.855469 30.625 58.695312 64.230469 58.695312s61.289062-25.839843 64.230469-58.695312h141.769531c2.9375 32.855469 30.625 58.695312 64.230469 58.695312 33.605468 0 61.289062-25.839843 64.226562-58.695312h53.1875c5.523438 0 10-4.476563 10-10v-39.972657c0-3.796874-.207031-7.628906-.613281-11.390624zm-241.527344-309.617188c12.714844 0 23.058594 10.347656 23.058594 23.0625s-10.34375 23.058594-23.058594 23.058594-23.058594-10.34375-23.058594-23.058594 10.34375-23.0625 23.058594-23.0625zm-66.113281 46.121094c-12.714844 0-23.058594-10.34375-23.058594-23.0625 0-12.714844 10.34375-23.058594 23.058594-23.058594s23.058594 10.34375 23.058594 23.058594c-.003907 12.71875-10.347657 23.0625-23.058594 23.0625zm-74.667969 73.300781c3.902344-8.257813 12.324219-13.59375 21.457031-13.59375h48.3125v108.71875h-114.699218zm-77.632813 231.558594h-31.445312v-30.285157h47.714844c-7.925782 8.300782-13.65625 18.707032-16.269532 30.285157zm62.910157 58.695312c-24.53125 0-44.488281-19.957031-44.488281-44.488281 0-24.535156 19.957031-44.492188 44.488281-44.492188s44.488281 19.957032 44.488281 44.492188c0 24.53125-19.957031 44.488281-44.488281 44.488281zm207.320312-58.695312h-144.410156c-2.613281-11.578125-8.347656-21.984375-16.269531-30.285157h176.945312c-7.917968 8.300782-13.652344 18.707032-16.265625 30.285157zm62.910157 58.695312c-24.53125 0-44.488282-19.957031-44.488282-44.488281 0-24.535156 19.957032-44.492188 44.488282-44.492188s44.484374 19.957032 44.484374 44.492188c0 24.53125-19.953124 44.488281-44.484374 44.488281zm-363.785157-108.980469c3.984375-28.929687 22.632813-54.078124 49.636719-66.148437h138.410156c5.523438 0 10-4.476563 10-10v-118.71875h21.925782v170.894531c0 5.523438 4.476562 10 10 10 5.523437 0 10-4.476562 10-10v-42.175781h144.285156.1875.191406 8.863281l15.75 4.472656c29.917969 8.492188 52.332031 32.097657 59.515625 61.675781zm471.199219 50.285157h-44.503906c-2.613282-11.578125-8.347656-21.984375-16.269532-30.285157h60.773438v.3125zm0 0"/><path d="m384.585938 399.605469c-7.949219 0-14.417969-6.46875-14.417969-14.421875 0-7.949219 6.46875-14.417969 14.417969-14.417969 7.949218 0 14.417968 6.46875 14.417968 14.417969 0 7.953125-6.46875 14.421875-14.417968 14.421875zm0 0" fill="#fff"/><path d="m384.585938 409.605469c-13.464844 0-24.417969-10.957031-24.417969-24.417969 0-13.464844 10.953125-24.421875 24.417969-24.421875 13.464843 0 24.417968 10.957031 24.417968 24.421875 0 13.460938-10.953125 24.417969-24.417968 24.417969zm0-28.839844c-2.4375 0-4.417969 1.984375-4.417969 4.421875 0 2.433594 1.980469 4.417969 4.417969 4.417969s4.417968-1.984375 4.417968-4.417969c0-2.4375-1.980468-4.421875-4.417968-4.421875zm0 0"/></svg>